<svg width="80" height="41" viewBox="0 0 80 41" fill="none" xmlns="http://www.w3.org/2000/svg">
<path d="M16.6042 40.3366C13.2179 40.3366 10.2727 39.7248 7.76854 38.5012C5.26439 37.2491 3.3436 35.4849 2.00616 33.2084C0.668721 30.9319 0 28.2854 0 25.2691C0 21.086 0.782545 17.3725 2.34764 14.1285C3.94118 10.8845 6.08962 8.38035 8.79296 6.61606C11.4963 4.82332 14.4984 3.92695 17.7993 3.92695C20.8726 3.92695 23.206 4.72373 24.7996 6.31727C26.3931 7.88236 27.1899 9.95967 27.1899 12.5492C27.1899 14.285 26.8769 15.6794 26.2508 16.7322C25.6532 17.7851 24.7853 18.3116 23.6471 18.3116C22.8503 18.3116 22.2243 18.1266 21.769 17.7567C21.3137 17.3867 21.086 16.8461 21.086 16.1347C21.086 15.8786 21.1429 15.409 21.2568 14.7261C21.4275 13.8724 21.5129 13.1894 21.5129 12.6772C21.5129 10.0877 20.1328 8.79296 17.3725 8.79296C15.4944 8.79296 13.7017 9.40477 11.9943 10.6284C10.2869 11.852 8.90679 13.659 7.85391 16.0493C6.80103 18.4112 6.27459 21.2283 6.27459 24.5008C6.27459 27.9155 7.22787 30.5619 9.13444 32.44C11.041 34.2897 13.8582 35.2145 17.5859 35.2145C19.4356 35.2145 21.2995 34.9869 23.1776 34.5316C25.0841 34.0478 27.1899 33.3222 29.4948 32.3547C29.9217 32.1839 30.2774 32.0986 30.5619 32.0986C31.0172 32.0986 31.3587 32.2693 31.5864 32.6108C31.814 32.9523 31.9278 33.3933 31.9278 33.934C31.9278 35.6698 30.9888 36.9504 29.1107 37.7756C27.0903 38.6577 24.9845 39.3122 22.7934 39.7391C20.6307 40.1374 18.5677 40.3366 16.6042 40.3366Z" fill="#FF6060"/>
<path d="M52.2689 30.6046C52.6388 30.6046 52.9234 30.7754 53.1226 31.1168C53.3502 31.4583 53.4641 31.9278 53.4641 32.5254C53.4641 33.6637 53.1937 34.5458 52.6531 35.1718C51.3441 36.68 49.9924 37.9179 48.598 38.8854C47.2321 39.8529 45.6671 40.3366 43.9028 40.3366C42.4515 40.3366 41.3559 39.924 40.6161 39.0988C39.8762 38.2451 39.5063 37.0215 39.5063 35.4279C39.5063 34.6312 39.7055 33.2084 40.1039 31.1595C40.4738 29.3668 40.6588 28.1289 40.6588 27.446C40.6588 26.9907 40.5023 26.763 40.1892 26.763C39.8193 26.763 39.2929 27.2468 38.6099 28.2143C37.927 29.1534 37.244 30.4054 36.5611 31.9705C35.8781 33.5356 35.3232 35.1861 34.8964 36.9219C34.3557 39.1984 33.0183 40.3366 30.8841 40.3366C30.0304 40.3366 29.4613 40.0379 29.1767 39.4403C28.9206 38.8142 28.7925 37.7044 28.7925 36.1109C28.7925 35.2003 28.8068 34.4747 28.8352 33.934L28.8779 30.5193C28.8779 26.137 29.319 21.5698 30.2011 16.8176C31.1117 12.0654 32.4349 8.08156 34.1708 4.86601C35.935 1.622 38.0408 0 40.488 0C41.797 0 42.8499 0.569123 43.6467 1.70737C44.4719 2.81716 44.8845 4.26843 44.8845 6.06117C44.8845 8.93524 44.0451 11.9231 42.3661 15.0249C40.6872 18.0981 37.9554 21.6978 34.1708 25.824C34.0854 27.3037 34.0427 28.8261 34.0427 30.3912C34.9818 27.9724 36.0204 26.009 37.1587 24.5008C38.3254 22.9641 39.4636 21.8686 40.5734 21.2141C41.7116 20.5596 42.7503 20.2323 43.6894 20.2323C45.539 20.2323 46.4638 21.1572 46.4638 23.0068C46.4638 24.1166 46.1508 26.1228 45.5248 29.0253C44.9841 31.501 44.7138 33.1372 44.7138 33.934C44.7138 35.0722 45.1264 35.6414 45.9516 35.6414C46.5207 35.6414 47.1895 35.2999 47.9578 34.6169C48.7546 33.9055 49.8074 32.7673 51.1164 31.2022C51.4579 30.8038 51.8421 30.6046 52.2689 30.6046ZM39.5917 4.22574C39.0795 4.22574 38.5103 4.96561 37.8843 6.44533C37.2583 7.89659 36.6465 9.8743 36.0489 12.3784C35.4797 14.8541 35.0102 17.5575 34.6403 20.4885C36.4046 18.4111 37.8558 16.1489 38.9941 13.7017C40.1608 11.2544 40.7441 9.03484 40.7441 7.04291C40.7441 6.13231 40.6445 5.43513 40.4453 4.95138C40.2462 4.46762 39.9616 4.22574 39.5917 4.22574Z" fill="#FF6060"/>
<path d="M55.2548 40.3366C53.4905 40.3366 52.0819 39.6964 51.029 38.4159C49.9762 37.1353 49.4497 35.4564 49.4497 33.3791C49.4497 31.1026 49.9762 28.9542 51.029 26.9338C52.0819 24.8849 53.4763 23.2487 55.2121 22.0251C56.9764 20.773 58.8403 20.147 60.8037 20.147C61.4298 20.147 61.8424 20.275 62.0416 20.5311C62.2692 20.7588 62.4542 21.1856 62.5965 21.8117C63.1941 21.6978 63.8201 21.6409 64.4746 21.6409C65.8689 21.6409 66.5661 22.1389 66.5661 23.1349C66.5661 23.7325 66.3527 25.1553 65.9259 27.4033C65.2714 30.6758 64.9441 32.9523 64.9441 34.2328C64.9441 34.6596 65.0437 35.0011 65.2429 35.2572C65.4706 35.5133 65.7551 35.6414 66.0966 35.6414C66.6373 35.6414 67.2918 35.2999 68.0601 34.6169C68.8284 33.9055 69.867 32.7673 71.176 31.2022C71.5175 30.8038 71.9017 30.6046 72.3285 30.6046C72.6984 30.6046 72.983 30.7754 73.1822 31.1168C73.4098 31.4583 73.5237 31.9278 73.5237 32.5254C73.5237 33.6637 73.2533 34.5458 72.7127 35.1718C71.546 36.6231 70.3081 37.8467 68.9991 38.8427C67.6901 39.8387 66.4238 40.3366 65.2002 40.3366C64.2612 40.3366 63.3933 40.0236 62.5965 39.3976C61.8282 38.7431 61.2448 37.861 60.8464 36.7512C59.3667 39.1415 57.5028 40.3366 55.2548 40.3366ZM56.7914 36.0255C57.4175 36.0255 58.015 35.6556 58.5842 34.9157C59.1533 34.1759 59.5659 33.1941 59.822 31.9705L61.4013 24.1166C60.2062 24.1451 59.0964 24.6004 58.072 25.4825C57.076 26.3362 56.2792 27.4744 55.6816 28.8973C55.0841 30.3201 54.7853 31.8282 54.7853 33.4218C54.7853 34.3039 54.956 34.9584 55.2975 35.3853C55.6674 35.8121 56.1654 36.0255 56.7914 36.0255Z" fill="#FF6060"/>
<path d="M75.945 17.4152C74.7498 17.4152 73.8535 17.1449 73.2559 16.6042C72.6583 16.0351 72.3595 15.2525 72.3595 14.2566C72.3595 13.2606 72.7437 12.4354 73.512 11.7809C74.3088 11.0979 75.2905 10.7564 76.4572 10.7564C77.5101 10.7564 78.3638 11.0125 79.0183 11.5248C79.6728 12.037 80 12.7626 80 13.7017C80 14.8399 79.6301 15.7505 78.8902 16.4334C78.1504 17.0879 77.1686 17.4152 75.945 17.4152ZM71.8473 40.3366C70.9367 40.3366 70.3107 40.1517 69.9692 39.7817C69.6277 39.4118 69.457 38.8285 69.457 38.0317C69.457 37.804 69.4854 37.4057 69.5424 36.8365C69.9977 31.629 70.7517 26.8911 71.8046 22.6227C72.0323 21.7405 72.4022 21.1287 72.9144 20.7872C73.4551 20.4173 74.3088 20.2323 75.4755 20.2323C76.6991 20.2323 77.3109 20.7303 77.3109 21.7263C77.3109 21.8686 77.2824 22.1389 77.2255 22.5373C75.945 28.6269 75.1767 33.7348 74.9206 37.861C74.8637 38.7716 74.5933 39.4118 74.1096 39.7817C73.6258 40.1517 72.8717 40.3366 71.8473 40.3366Z" fill="#FF6060"/>
</svg>
