<svg width="120" height="44" viewBox="0 0 120 44" fill="none" xmlns="http://www.w3.org/2000/svg">
<path fill-rule="evenodd" clip-rule="evenodd" d="M87.4399 20.6561C87.3379 20.5199 87.3379 20.3158 87.4739 20.2137L97 10.6878C97.2041 10.4835 97.0679 10.1095 96.7617 10.1095H89.073C89.0525 10.1095 89.0332 10.1109 89.0151 10.1136C88.989 10.1175 88.9653 10.1241 88.9431 10.1339C88.9304 10.1395 88.9182 10.1458 88.9062 10.1532C88.8816 10.1686 88.8582 10.1881 88.8347 10.2115L81.7583 17.2879C81.5542 17.492 81.1799 17.3558 81.1799 17.0497V0.345313C81.1799 0.246436 81.1448 0.165137 81.0867 0.106543C81.0537 0.0730959 81.0134 0.0469729 80.968 0.0289065C80.9321 0.0145022 80.8928 0.00546897 80.8513 0.00180686C80.8147 -0.00136697 80.7766 -0.000390404 80.7378 0.00498069L75.2942 1.50205C75.1582 1.53599 75.0561 1.67197 75.0561 1.84214V33.5501C75.0561 33.7542 75.1921 33.8902 75.3965 33.8902H80.8398C81.0439 33.8902 81.1799 33.7542 81.1799 33.5501V26.6437C81.1799 26.5416 81.2141 26.4737 81.282 26.4056L82.6428 25.0448C82.7791 24.9088 83.0171 24.9088 83.1533 25.0787L89.8215 33.7882C89.8894 33.8563 89.9915 33.9244 90.0935 33.9244H96.9658C97.0461 33.9244 97.1174 33.8949 97.1738 33.8478C97.2366 33.7955 97.2808 33.7218 97.2981 33.6432C97.3179 33.5531 97.3022 33.4569 97.238 33.38L87.4399 20.6561ZM108.125 10.1095C101.354 10.0414 95.877 15.6549 96.1152 22.493C96.3533 28.5489 101.184 33.516 107.24 33.9244C110.71 34.1285 113.874 32.8697 116.188 30.6922C116.324 30.5563 116.324 30.3521 116.188 30.2159L112.343 26.3717C112.207 26.2354 112.003 26.2354 111.867 26.3375C110.846 27.2562 109.486 27.8004 108.023 27.8004C105.743 27.8004 103.77 26.4737 102.817 24.5345C102.761 24.4032 102.788 24.2721 102.862 24.1808C102.895 24.1405 102.938 24.1078 102.987 24.0863C103.028 24.0682 103.074 24.0582 103.124 24.0582H119.59C119.708 24.0582 119.803 24.0128 119.862 23.9352C119.906 23.8783 119.93 23.8041 119.93 23.7179V22.255C119.93 15.7569 114.623 10.1434 108.125 10.1095ZM112.888 19.9754H103.124C102.885 19.9754 102.715 19.7035 102.817 19.4994C103.77 17.5602 105.743 16.2333 108.023 16.2333C110.302 16.2333 112.275 17.5602 113.228 19.4994C113.33 19.7035 113.16 19.9754 112.888 19.9754ZM2.82837 26.9842L0.0727513 30.5565C-0.0292995 30.6925 -0.0292995 30.8966 0.106687 30.9986C4.05322 35.0472 13.8855 35.4215 17.6958 31.5089C18.5803 30.5904 19.2949 29.1957 19.499 27.9369C20.0774 24.5345 18.7505 22.1871 15.5525 20.8263C14.5095 20.3844 13.4299 20.0526 12.3518 19.7213C11.3547 19.4151 10.3589 19.1092 9.39453 18.7169C8.71411 18.4447 7.52343 17.7984 7.6936 16.8797C7.99975 15.8592 8.95239 15.451 9.73486 15.3487C10.4153 15.2809 11.1638 15.2809 11.9463 15.3829C13.375 15.587 14.7361 16.2674 16.199 16.8797C16.335 16.9479 16.5051 16.8797 16.6072 16.7438C17.3557 15.5189 18.1721 14.2943 19.0227 12.9332C19.1069 12.828 19.113 12.7096 19.0652 12.6107C19.0356 12.5497 18.9856 12.4959 18.9207 12.4571C14.2937 9.83726 9.70068 9.29307 4.90381 11.3004C2.42016 12.4229 0.753171 14.8385 0.923337 17.6964C1.12744 20.4862 2.82837 22.119 5.20996 23.1058C5.65503 23.2911 6.1084 23.4603 6.56616 23.6209C7.1145 23.8133 7.66919 23.993 8.22461 24.1729C9.33178 24.5313 10.4409 24.8905 11.5039 25.3512C12.1504 25.6234 12.8308 26.2018 12.7966 27.1883C12.7627 27.7667 12.0823 28.4811 11.0957 28.6512C9.7688 28.8893 9.02026 28.8553 7.01318 28.4129C5.95385 28.1554 4.94262 27.681 3.8584 27.1725L3.83276 27.1607C3.63696 27.0687 3.43847 26.9754 3.23681 26.8822C3.16797 26.8478 3.09057 26.8395 3.01758 26.857C2.94604 26.8744 2.8789 26.9168 2.82837 26.9842ZM60.3589 10.1095C53.7927 10.1095 48.4514 15.4508 48.4514 22.0169C48.4514 28.5831 53.7927 33.9244 60.3589 33.9244C66.925 33.9244 72.2664 28.5831 72.2664 22.0169C72.2664 15.4508 66.925 10.1095 60.3589 10.1095ZM60.3589 27.8006C57.1609 27.8006 54.5752 25.2149 54.5752 22.0169C54.5752 18.8189 57.1609 16.2333 60.3589 16.2333C63.5569 16.2333 66.1426 18.8189 66.1426 22.0169C66.1426 25.2149 63.5569 27.8006 60.3589 27.8006ZM29.5354 11.3343C31.2705 10.4837 33.2439 10.0074 35.353 10.1095C41.5791 10.3817 46.5801 15.485 46.7502 21.7108C46.9204 28.4129 41.511 33.9244 34.8428 33.9244C32.9375 33.9244 31.1345 33.4483 29.5354 32.6656C29.3313 32.5636 29.0591 32.7337 29.0591 32.972V42.1578C29.0591 42.3277 28.957 42.464 28.821 42.4979L23.3777 43.995C23.2498 44.0133 23.1316 43.9825 23.0498 43.9132C22.979 43.8534 22.9353 43.765 22.9353 43.6546V10.4159C22.9353 10.2115 23.0713 10.0755 23.2756 10.0755H28.719C28.8235 10.0755 28.9102 10.1112 28.9697 10.1734C29.0266 10.2328 29.0591 10.3163 29.0591 10.4159V11.0282C29.0591 11.2662 29.2974 11.4364 29.5354 11.3343ZM30.5561 17.7984C26.7798 22.8336 30.6921 28.3451 35.5913 27.7325C38.177 27.4264 40.2522 25.3512 40.5583 22.7655C41.1707 17.8324 35.6592 13.954 30.624 17.7303C30.603 17.7303 30.595 17.7433 30.584 17.7613C30.5771 17.7726 30.5691 17.7855 30.5561 17.7984Z" fill="#FE334B"/>
</svg>
